<svg width="12" height="12" viewBox="0 0 12 12" fill="none" xmlns="http://www.w3.org/2000/svg">
<path d="M1.46591 2.77838H11.2159C11.423 2.77838 11.5909 2.6105 11.5909 2.40338V1.46588C11.5909 1.25876 11.423 1.09088 11.2159 1.09088H1.46591C1.25879 1.09088 1.09091 1.25876 1.09091 1.46588V2.40338C1.09091 2.6105 1.25879 2.77838 1.46591 2.77838ZM1.46591 6.52838H11.2159C11.423 6.52838 11.5909 6.3605 11.5909 6.15338V5.21588C11.5909 5.00876 11.423 4.84088 11.2159 4.84088H1.46591C1.25879 4.84088 1.09091 5.00876 1.09091 5.21588V6.15338C1.09091 6.3605 1.25879 6.52838 1.46591 6.52838ZM1.46591 10.2784H11.2159C11.423 10.2784 11.5909 10.1105 11.5909 9.90338V8.96588C11.5909 8.75876 11.423 8.59088 11.2159 8.59088H1.46591C1.25879 8.59088 1.09091 8.75876 1.09091 8.96588V9.90338C1.09091 10.1105 1.25879 10.2784 1.46591 10.2784Z" fill="#1F1F1F"/>
</svg>
