<svg width="12" height="12" viewBox="0 0 12 12" fill="none" xmlns="http://www.w3.org/2000/svg">
<path d="M3.68673 4.71508L3.94678 4.67717L4.06302 4.44148L5.42334 1.68333C5.42337 1.68327 5.4234 1.68322 5.42343 1.68316C5.4833 1.56222 5.66001 1.55782 5.72273 1.68378C5.72278 1.68387 5.72283 1.68397 5.72287 1.68407L7.08283 4.44148L7.19908 4.67717L7.45913 4.71508L10.5029 5.15883L10.5032 5.15889C10.6384 5.17849 10.694 5.34691 10.595 5.44333L10.5948 5.44346L8.39273 7.5893L8.20436 7.77285L8.2489 8.03207L8.76967 11.063C8.76967 11.063 8.76968 11.063 8.76968 11.063C8.79238 11.1958 8.65117 11.3027 8.52856 11.2382L8.52848 11.2381L5.80556 9.80689L5.57293 9.68461L5.34029 9.80689L2.61737 11.2381L2.6158 11.239C2.49672 11.3021 2.35308 11.1989 2.37615 11.0632C2.37616 11.0631 2.37617 11.063 2.37618 11.063L2.89696 8.03207L2.94149 7.77285L2.75313 7.5893L0.551043 5.44346L0.550901 5.44333C0.451877 5.34691 0.507428 5.17849 0.642611 5.15889L0.642976 5.15883L3.68673 4.71508Z" stroke="#1F1F1F"/>
</svg>
