<svg width="12" height="12" viewBox="0 0 12 12" fill="none" xmlns="http://www.w3.org/2000/svg">
<g clip-path="url(#clip0_16_69)">
<path d="M11.1 1.20001H0.9C0.661305 1.20001 0.432387 1.29483 0.263604 1.46362C0.0948212 1.6324 0 1.86132 0 2.10001L0 8.10001C0 8.33871 0.0948212 8.56763 0.263604 8.73641C0.432387 8.90519 0.661305 9.00001 0.9 9.00001H5.4V9.60001H2.1C2.02044 9.60001 1.94413 9.63162 1.88787 9.68788C1.83161 9.74414 1.8 9.82045 1.8 9.90001V10.5C1.8 10.5796 1.83161 10.6559 1.88787 10.7121C1.94413 10.7684 2.02044 10.8 2.1 10.8H9.9C9.97957 10.8 10.0559 10.7684 10.1121 10.7121C10.1684 10.6559 10.2 10.5796 10.2 10.5V9.90001C10.2 9.82045 10.1684 9.74414 10.1121 9.68788C10.0559 9.63162 9.97957 9.60001 9.9 9.60001H6.6V9.00001H11.1C11.3387 9.00001 11.5676 8.90519 11.7364 8.73641C11.9052 8.56763 12 8.33871 12 8.10001V2.10001C12 1.86132 11.9052 1.6324 11.7364 1.46362C11.5676 1.29483 11.3387 1.20001 11.1 1.20001V1.20001ZM10.8 7.80001H1.2V2.40001H10.8V7.80001Z" fill="#1F1F1F"/>
</g>
<defs>
<clipPath id="clip0_16_69">
<rect width="12" height="12" fill="white"/>
</clipPath>
</defs>
</svg>
