<svg width="923" height="95" viewBox="0 0 923 95" fill="none" xmlns="http://www.w3.org/2000/svg">
<path d="M0 34.4286C0 17.0711 14.0711 3 31.4286 3H740.714C758.072 3 772.143 17.0711 772.143 34.4286V59.8571C772.143 77.2146 758.072 91.2857 740.714 91.2857H31.4286C14.0711 91.2857 0 77.2147 0 59.8571V34.4286Z" fill="#F2F2F2"/>
<g opacity="0.76">
<path d="M87.2143 50.2857H85.9729L85.5329 49.8614C87.0729 48.07 88 45.7443 88 43.2143C88 37.5729 83.4272 33 77.7857 33C72.1443 33 67.5714 37.5729 67.5714 43.2143C67.5714 48.8557 72.1443 53.4286 77.7857 53.4286C80.3157 53.4286 82.6414 52.5014 84.4329 50.9614L84.8572 51.4014V52.6429L92.7143 60.4843L95.0557 58.1429L87.2143 50.2857V50.2857ZM77.7857 50.2857C73.8729 50.2857 70.7143 47.1271 70.7143 43.2143C70.7143 39.3014 73.8729 36.1429 77.7857 36.1429C81.6986 36.1429 84.8572 39.3014 84.8572 43.2143C84.8572 47.1271 81.6986 50.2857 77.7857 50.2857Z" fill="black"/>
<path opacity="0.6" d="M173.906 62.9337C169.255 62.0537 165.433 60.7966 162.441 59.1623C160.932 59.8915 159.185 60.5577 157.199 61.1612C155.238 61.7646 152.899 62.3806 150.184 63.0092L149.279 60.1052C153.754 59.3257 157.224 58.4206 159.688 57.3897C157.651 55.9063 155.766 53.9577 154.031 51.544H152.371V49.0549H161.008V28.576H163.799V49.0549H171.568V51.5063C169.607 54.0709 167.52 56.0823 165.307 57.5406C167.671 58.5463 170.814 59.3509 174.736 59.9543L173.906 62.9337ZM151.014 45.9246L147.695 47.4709V58.7475C147.695 59.7783 147.556 60.5577 147.28 61.0857C147.003 61.6137 146.538 61.9783 145.884 62.1795C145.256 62.3806 144.313 62.4812 143.056 62.4812C142.427 62.4812 141.786 62.4435 141.132 62.368L140.567 59.464C141.447 59.5897 142.302 59.6526 143.131 59.6526C143.86 59.6526 144.338 59.5269 144.564 59.2755C144.791 59.024 144.904 58.4835 144.904 57.6537V48.7532C143.068 49.5577 141.585 50.1863 140.454 50.6389L140.114 47.5463C141.371 47.0435 142.968 46.3646 144.904 45.5097V38.4195H140.718V35.5155H144.904V28.6515H147.695V35.5155H151.202V38.4195H147.695V44.3029C148.675 43.8755 149.694 43.4103 150.75 42.9075L151.014 45.9246ZM159.839 43.4355V45.8869H152.598V32.3475C154.86 31.8195 157.086 31.1657 159.273 30.3863L160.178 32.6869C158.242 33.4663 156.608 34.0069 155.275 34.3086V37.552H159.763V39.9657H155.275V43.4355H159.839ZM165.006 31.744H172.435V45.8869H165.006V43.4355H169.72V39.9657H165.006V37.552H169.72V34.1577H165.006V31.744ZM157.312 51.544C158.871 53.4046 160.568 54.9132 162.403 56.0697C164.264 55.0137 166.099 53.5052 167.91 51.544H157.312ZM181.147 38.4949H204.983V36.496H179.337V34.4217H204.983V32.536H181.864V30.2732H207.887V34.4217H210.678V36.496H207.887V40.6446H181.147V38.4949ZM212.337 52.5246V55.0515H205.134V57.9555C205.134 59.2126 204.958 60.168 204.606 60.8217C204.279 61.4755 203.726 61.928 202.946 62.1795C202.167 62.456 201.048 62.5943 199.59 62.5943C198.257 62.5943 196.887 62.5189 195.479 62.368L194.951 59.7657C196.283 59.9669 197.804 60.0675 199.514 60.0675C200.545 60.0675 201.249 59.8537 201.626 59.4263C202.028 58.9989 202.23 58.2572 202.23 57.2012V55.0515H186.578C188.891 56.3589 191.003 57.6035 192.914 58.7852L191.179 61.1989C190.274 60.5955 189.105 59.8537 187.672 58.9737C186.239 58.0937 184.982 57.3395 183.9 56.7109L185.107 55.0515H178.319V52.5246H202.23V49.9223H195.78V42.6057H209.584V49.9223H205.134V52.5246H212.337ZM194.196 49.4697C191.33 49.6457 186.276 49.9977 179.035 50.5257L178.922 48.3006L183.636 47.9989L185.334 47.8857V44.8686H179.827V42.6435H193.706V44.8686H188.238V47.6972C191.154 47.4709 193.14 47.3075 194.196 47.2069V49.4697ZM206.793 44.8686H198.609V47.6217H206.793V44.8686ZM228.969 33.6675V36.4206H215.844V33.6675H221.539C221.313 32.7372 220.911 31.3292 220.332 29.4435L223.161 28.6892L223.5 29.7829L224.594 33.6675H228.969ZM242.772 51.0537C243.954 52.5372 245.148 53.8823 246.355 55.0892C247.562 56.296 248.945 57.528 250.504 58.7852L248.844 61.312C245.551 58.144 242.835 55.152 240.698 52.336V62.896H238.096V52.4492C236.889 54.1086 235.632 55.6423 234.324 57.0503C233.042 58.4332 231.584 59.8537 229.95 61.312L228.29 58.8229C229.924 57.5909 231.358 56.3715 232.59 55.1646C233.822 53.9326 235.016 52.5623 236.172 51.0537H229.384V48.4137H238.096V45.0572H230.779V30.3109H248.052V45.0572H240.698V48.4137H249.938V51.0537H242.772ZM238.096 36.4583V32.8H233.382V36.4583H238.096ZM240.698 36.4583H245.45V32.8H240.698V36.4583ZM233.382 38.9097V42.5303H238.096V38.9097H233.382ZM240.698 38.9097V42.5303H245.45V38.9097H240.698ZM227.46 41.9269H217.542V39.2869H227.46V41.9269ZM227.46 47.3955H217.542V44.7932H227.46V47.3955ZM227.31 61.1989H217.692V50.1863H227.31V61.1989ZM224.783 52.7509H220.257V58.7475H224.783V52.7509ZM265.552 52.2606C264.596 50.8777 263.402 49.3189 261.969 47.584V62.9715H259.216V47.9235C257.934 51.2675 256.551 54.0206 255.067 56.1829L253.332 53.656C254.564 51.896 255.671 49.9977 256.651 47.9612C257.632 45.8995 258.436 43.8629 259.065 41.8515H254.087V39.0229H259.216V33.9692C257.657 34.2709 256.073 34.5349 254.464 34.7612L254.2 31.8949C256.01 31.6435 258.072 31.2915 260.385 30.8389C262.723 30.3612 264.71 29.8835 266.344 29.4057L266.985 32.272C265.527 32.6743 263.855 33.064 261.969 33.4412V39.0229H266.721V41.8515H261.969V44.2275C262.899 45.1326 263.88 46.1635 264.911 47.32C265.967 48.4766 266.734 49.3692 267.211 49.9977L265.552 52.2606ZM268.946 30.4617H285.465V40.9086H268.946V30.4617ZM271.85 38.3063H282.561V33.1017H271.85V38.3063ZM278.639 58.7097H288.143V61.4629H266.08V58.7097H275.697V54.0332H268.38V51.3932H275.697V47.2069C273.484 47.3829 271.033 47.5086 268.343 47.584L268.116 44.9063C274.352 44.856 280.21 44.3532 285.691 43.3977L286.295 46C283.278 46.4526 280.726 46.7669 278.639 46.9429V51.3932H286.031V54.0332H278.639V58.7097ZM305.491 42.1909C306.874 43.0206 308.207 44.0137 309.489 45.1703C310.771 46.3017 311.915 47.5212 312.921 48.8286L310.771 50.7897C308.81 48.0492 306.56 45.736 304.02 43.8503L305.491 42.1909ZM344.676 45.736C345.179 47.1189 345.695 48.728 346.223 50.5635L344.337 51.1292L344.035 50.224C341.37 50.5509 339.472 50.8023 338.34 50.9783L336.568 51.28L335.964 49.1303C336.568 48.9795 337.02 48.7909 337.322 48.5646C337.875 48.1623 338.944 47.1189 340.528 45.4343L337.737 45.8869C337.536 45.912 337.02 46 336.191 46.1509L335.625 44.0389C336.153 43.9383 336.606 43.7497 336.983 43.4732C337.335 43.1463 337.825 42.5932 338.454 41.8137C339.082 41.0343 339.648 40.2926 340.151 39.5886H333.89V62.632H331.212V30.1223H344.412V39.5886H342.489C342.011 40.3429 341.395 41.1977 340.641 42.1532C339.887 43.1086 339.334 43.7497 338.982 44.0766C340.44 43.8252 341.521 43.6492 342.225 43.5486C343.08 42.5932 343.746 41.7886 344.224 41.1349L345.732 42.4926C344.852 43.624 343.796 44.856 342.564 46.1886C341.358 47.496 340.276 48.5017 339.321 49.2057L343.47 48.4137L342.791 46.3395L344.676 45.736ZM347.995 30.1223H361.158V57.6537C361.158 58.9612 361.044 59.9417 360.818 60.5955C360.617 61.2743 360.202 61.7646 359.574 62.0663C358.945 62.368 357.977 62.5189 356.67 62.5189C355.236 62.5189 354.017 62.456 353.011 62.3303L352.559 59.8412C353.841 60.0172 354.935 60.1052 355.84 60.1052C356.619 60.1052 357.198 60.0297 357.575 59.8789C357.952 59.7029 358.203 59.4263 358.329 59.0492C358.455 58.6469 358.518 58.0812 358.518 57.352V39.5886H353.275C352.32 40.9212 351.126 42.4675 349.692 44.2275C351 43.9257 351.993 43.712 352.672 43.5863L355.086 40.984L356.632 42.3417C354.998 44.0515 353.615 45.472 352.483 46.6035C351.352 47.7097 350.396 48.552 349.617 49.1303C350.648 48.9543 352.194 48.6652 354.256 48.2629L353.577 46.4526L355.35 45.7737C355.651 46.4023 356.154 47.7097 356.858 49.696L357.235 50.7143L355.312 51.3555L354.897 50.1109L350.258 50.6766L348.825 50.8652C348.071 50.9657 347.505 51.0663 347.128 51.1669L346.524 48.9795C346.902 48.8789 347.254 48.7155 347.58 48.4892C348.385 47.8857 349.466 46.88 350.824 45.472L349.843 45.6229C349.089 45.7235 348.548 45.8115 348.222 45.8869C347.794 45.9372 347.266 46.0252 346.638 46.1509L346.072 44.0389C346.524 43.9383 346.952 43.7497 347.354 43.4732C347.958 42.9703 349.051 41.6755 350.635 39.5886H347.995V30.1223ZM341.772 34.0069V32.1589H333.89V34.0069H341.772ZM358.518 34.0069V32.1589H350.635V34.0069H358.518ZM341.772 35.8172H333.89V37.6275H341.772V35.8172ZM350.635 35.8172V37.6275H358.518V35.8172H350.635ZM355.689 52.2983V57.1257H350.032V62.1417H347.618V51.808H350.032V55.0137H353.238V52.2983H355.689ZM342.451 51.8835H344.827V54.6366C344.827 56.0446 344.626 57.2012 344.224 58.1063C343.822 59.0115 343.118 59.8035 342.112 60.4823C341.106 61.1863 339.648 61.8903 337.737 62.5943L336.417 60.5577C338.252 59.9543 339.585 59.4012 340.415 58.8983C341.27 58.3955 341.835 57.7795 342.112 57.0503H336.832V52.4115H339.321V54.9383H342.451V54.6743V51.8835ZM378.808 59.0115C373.855 59.9417 369.87 60.6206 366.852 61.048L366.438 58.672C368.172 58.4457 370.008 58.1566 371.944 57.8046V46.9052H367.456V44.5669H371.944V40.7577H369.379V39.0983L367.984 40.7577L366.098 38.7589C367.456 37.2755 368.738 35.5657 369.945 33.6297C371.152 31.6937 372.057 29.8457 372.66 28.0857L375.3 28.84C375.175 29.192 374.961 29.72 374.659 30.424C376.57 32.184 378.318 33.9063 379.902 35.5909L378.054 37.4389C376.696 35.88 375.2 34.296 373.566 32.6869C372.585 34.5977 371.391 36.4835 369.983 38.344H377.903V40.7577H374.508V44.5669H378.544V46.9052H374.508V57.3143C375.942 57.0629 377.387 56.7737 378.846 56.4469L378.808 59.0115ZM399.362 31.8949V37.1372H401.323V39.4H399.362V44.68H394.12V47.5086H399.551V49.7715H394.12V52.6377H400.418V54.9383H394.12V58.2572H391.744V54.9383H386.275V52.6377H391.744V49.7715H387.444V47.5086H391.744V44.68H387.633V42.3417H391.744V39.4H386.652V37.1372H391.744V34.1955H387.671V31.8949H391.744V28.576H394.12V31.8949H399.362ZM391.404 59.0115C393.064 59.0869 394.723 59.1246 396.383 59.1246C398.017 59.1246 399.664 59.0869 401.323 59.0115L400.795 61.4629C399.211 61.5383 397.615 61.576 396.006 61.576C394.447 61.576 392.85 61.5383 391.216 61.4629C389.355 61.3875 387.746 61.048 386.388 60.4446C385.056 59.8663 383.887 58.8857 382.881 57.5029C382.177 58.9109 381.096 60.6457 379.638 62.7075L377.639 60.8595C379.348 58.6972 380.618 56.736 381.448 54.976C380.518 52.8137 379.776 50.0732 379.223 46.7543L381.372 46.1509C381.724 48.3383 382.152 50.224 382.655 51.808C383.233 49.9726 383.686 47.4583 384.012 44.2652H379.638V41.776L383.899 33.9315H379.6V31.3292H386.502V33.8937L382.164 41.776H386.313V44.3783C385.886 48.5269 385.131 52.0217 384.05 54.8629C384.855 56.1703 385.86 57.176 387.067 57.88C388.274 58.5589 389.72 58.936 391.404 59.0115ZM397.062 34.1955H394.12V37.1372H397.062V34.1955ZM394.12 42.3417H397.062V39.4H394.12V42.3417ZM375.263 55.0892C375.967 52.4743 376.47 50.2492 376.771 48.4137L378.921 48.9795C378.77 49.9097 378.544 51.0286 378.242 52.336C377.94 53.6183 377.651 54.712 377.375 55.6172L375.263 55.0892ZM369.342 48.6023C370.046 51.3177 370.586 53.6435 370.963 55.5795L368.889 56.0697C368.26 53.2035 367.695 50.9029 367.192 49.168L369.342 48.6023ZM408.942 35.8172V41.1726H405.849V32.9132H420.595C419.489 30.7509 418.835 29.4937 418.634 29.1417L421.802 28.2743L424.178 32.9132H437.265V41.2103H434.135V35.8172H408.942ZM438.321 49.2435V52.1852H423.348V57.5406C423.348 58.9486 423.21 60.0046 422.934 60.7086C422.657 61.4126 422.179 61.8903 421.5 62.1417C420.847 62.4183 419.854 62.5566 418.521 62.5566C417.465 62.5566 415.906 62.456 413.844 62.2549L413.241 59.3132C415.001 59.5646 416.572 59.6903 417.955 59.6903C418.634 59.6903 419.124 59.6275 419.426 59.5017C419.728 59.3509 419.929 59.0743 420.03 58.672C420.155 58.2446 420.218 57.5909 420.218 56.7109V52.1852H404.718V49.2435H420.218V47.2069L427.044 42.9075H410.714V40.0035H432.362V42.8697L423.348 48.4137V49.2435H438.321ZM476.224 53.5052C475.972 54.9886 475.683 56.4846 475.356 57.9932C474.703 61.1612 473.244 62.7452 470.982 62.7452C470.001 62.7452 469.121 62.4183 468.342 61.7646C467.562 61.1109 466.745 60.0297 465.89 58.5212C465.588 57.9932 465.274 57.3143 464.947 56.4846C463.363 58.3452 461.327 60.432 458.838 62.7452L456.914 60.2937C459.931 57.5783 462.244 55.2275 463.854 53.2412C462.772 49.2937 462.006 43.9257 461.553 37.1372H442.771V34.2332H461.402C461.327 32.272 461.214 30.3612 461.063 28.5006H464.268L464.344 29.7829C464.394 31.5429 464.47 33.0263 464.57 34.2332H470.529L468.379 31.8195L466.569 29.8206L468.606 28.1612C469.41 28.9155 470.856 30.4492 472.943 32.7623L471.246 34.2332H476.035V37.1372H464.759C465.136 42.4675 465.639 46.7166 466.267 49.8846C468.027 47.0937 469.599 43.5863 470.982 39.3623L473.81 40.3806C472.93 43.0709 471.937 45.4972 470.831 47.6595C469.75 49.7966 468.53 51.7955 467.172 53.656C467.625 55.1395 468.115 56.3463 468.643 57.2766C469.096 58.0309 469.498 58.5589 469.85 58.8606C470.227 59.1623 470.604 59.3132 470.982 59.3132C471.384 59.3132 471.723 59.0995 472 58.672C472.302 58.2446 472.553 57.4777 472.754 56.3715C473.006 55.3155 473.232 54.0206 473.433 52.4869L476.224 53.5052ZM445.336 52.2229V40.7955H457.744V52.2229H445.336ZM448.051 49.3943H454.953V43.624H448.051V49.3943ZM458.8 57.6915L450.729 58.9737C446.505 59.6023 443.915 60.0046 442.96 60.1806L442.658 57.1257C444.72 56.8492 447.561 56.4343 451.182 55.8812C454.827 55.328 457.367 54.9257 458.8 54.6743V57.6915ZM494.95 44.3029H509.772V32.536H513.128V60.1429H509.772V47.32H494.95V60.1429H491.594V32.536H494.95V44.3029ZM526.861 40.1166C529.073 40.1166 530.884 40.7955 532.292 42.1532C533.7 43.4857 534.404 45.3966 534.404 47.8857V60.1429H531.575C531.5 58.8606 531.449 58.0309 531.424 57.6537C530.821 58.6092 530.004 59.3383 528.973 59.8412C527.967 60.3189 526.811 60.5577 525.503 60.5577C524.246 60.5577 523.064 60.3315 521.958 59.8789C520.877 59.4012 520.009 58.7097 519.356 57.8046C518.702 56.8743 518.375 55.768 518.375 54.4857C518.375 52.5497 519.155 51.0286 520.713 49.9223C522.297 48.7909 524.334 48.2252 526.823 48.2252C528.231 48.2252 529.689 48.4137 531.198 48.7909V48.4515C531.198 46.616 530.821 45.2583 530.067 44.3783C529.337 43.4732 528.219 43.0206 526.71 43.0206C525.503 43.0206 524.497 43.272 523.693 43.7749C522.888 44.2777 522.209 45.0195 521.656 46L519.205 44.6046C519.808 43.2469 520.789 42.1657 522.147 41.3612C523.529 40.5315 525.101 40.1166 526.861 40.1166ZM531.198 51.4686C529.614 51.0663 528.168 50.8652 526.861 50.8652C525.227 50.8652 523.957 51.1795 523.052 51.808C522.172 52.4366 521.732 53.3166 521.732 54.448C521.732 55.504 522.109 56.3337 522.863 56.9372C523.617 57.5155 524.598 57.8046 525.805 57.8046C527.288 57.8046 528.558 57.3772 529.614 56.5223C530.67 55.6423 531.198 54.4355 531.198 52.9017V51.4686ZM553.106 54.5612C553.106 55.7429 552.792 56.7863 552.163 57.6915C551.56 58.5966 550.705 59.3006 549.599 59.8035C548.493 60.3063 547.223 60.5577 545.79 60.5577C543.879 60.5577 542.232 60.1303 540.849 59.2755C539.466 58.4206 538.561 57.2515 538.134 55.768L540.585 54.3726C541.515 56.56 543.25 57.6537 545.79 57.6537C547.022 57.6537 547.99 57.4023 548.694 56.8995C549.398 56.3966 549.75 55.7052 549.75 54.8252C549.75 54.1463 549.536 53.5932 549.109 53.1657C548.706 52.7383 548.191 52.4115 547.562 52.1852C546.959 51.9337 546.104 51.6446 544.998 51.3177C543.665 50.9406 542.584 50.576 541.754 50.224C540.925 49.872 540.221 49.3566 539.642 48.6777C539.064 47.9737 538.775 47.056 538.775 45.9246C538.775 44.7429 539.089 43.712 539.718 42.832C540.371 41.952 541.239 41.2857 542.32 40.8332C543.426 40.3555 544.633 40.1166 545.941 40.1166C547.65 40.1166 549.121 40.4937 550.353 41.248C551.585 42.0023 552.415 43.0332 552.842 44.3406L550.391 45.736C549.989 44.8812 549.385 44.2275 548.581 43.7749C547.801 43.2972 546.871 43.0583 545.79 43.0583C544.683 43.0583 543.791 43.2846 543.112 43.7372C542.458 44.1646 542.131 44.7932 542.131 45.6229C542.131 46.2263 542.32 46.7166 542.697 47.0937C543.099 47.4709 543.59 47.7726 544.168 47.9989C544.746 48.2252 545.563 48.4892 546.619 48.7909C548.002 49.168 549.121 49.5452 549.976 49.9223C550.831 50.2743 551.56 50.8275 552.163 51.5817C552.792 52.336 553.106 53.3292 553.106 54.5612ZM566.535 40.1166C568.572 40.1166 570.231 40.808 571.514 42.1909C572.796 43.5737 573.437 45.5349 573.437 48.0743V60.1429H570.231V48.9795C570.231 47.1189 569.854 45.6857 569.1 44.68C568.371 43.6743 567.277 43.1715 565.819 43.1715C564.863 43.1715 563.958 43.3977 563.103 43.8503C562.274 44.2777 561.595 44.9315 561.067 45.8115C560.539 46.6663 560.275 47.7349 560.275 49.0172V60.1429H557.069V31.4423H560.275V43.5109C560.954 42.4046 561.834 41.5623 562.915 40.984C563.996 40.4057 565.203 40.1166 566.535 40.1166ZM589.582 59.5017C588.551 60.2057 587.231 60.5577 585.622 60.5577C581.674 60.5577 579.701 58.3075 579.701 53.8069V43.3223H576.457V40.5315H579.701V35.0629H582.906V40.5315H588.601V43.3223H582.906V53.4297C582.906 56.1703 583.937 57.5406 585.999 57.5406C586.904 57.5406 587.746 57.3143 588.526 56.8617L589.582 59.5017ZM600.374 40.1166C602.587 40.1166 604.397 40.7955 605.805 42.1532C607.213 43.4857 607.917 45.3966 607.917 47.8857V60.1429H605.089C605.013 58.8606 604.963 58.0309 604.938 57.6537C604.334 58.6092 603.517 59.3383 602.486 59.8412C601.481 60.3189 600.324 60.5577 599.017 60.5577C597.759 60.5577 596.578 60.3315 595.471 59.8789C594.39 59.4012 593.523 58.7097 592.869 57.8046C592.215 56.8743 591.889 55.768 591.889 54.4857C591.889 52.5497 592.668 51.0286 594.227 49.9223C595.811 48.7909 597.847 48.2252 600.337 48.2252C601.745 48.2252 603.203 48.4137 604.711 48.7909V48.4515C604.711 46.616 604.334 45.2583 603.58 44.3783C602.851 43.4732 601.732 43.0206 600.223 43.0206C599.017 43.0206 598.011 43.272 597.206 43.7749C596.402 44.2777 595.723 45.0195 595.17 46L592.718 44.6046C593.322 43.2469 594.302 42.1657 595.66 41.3612C597.043 40.5315 598.614 40.1166 600.374 40.1166ZM604.711 51.4686C603.127 51.0663 601.682 50.8652 600.374 50.8652C598.74 50.8652 597.47 51.1795 596.565 51.808C595.685 52.4366 595.245 53.3166 595.245 54.448C595.245 55.504 595.622 56.3337 596.377 56.9372C597.131 57.5155 598.111 57.8046 599.318 57.8046C600.802 57.8046 602.071 57.3772 603.127 56.5223C604.183 55.6423 604.711 54.4355 604.711 52.9017V51.4686ZM630.504 40.5315V58.8983C630.504 62.6949 629.599 65.3852 627.789 66.9692C625.978 68.5532 623.829 69.3452 621.34 69.3452C619.404 69.3452 617.681 68.9303 616.173 68.1006C614.664 67.2709 613.633 66.1017 613.08 64.5932L615.682 63.1223C616.663 65.2595 618.561 66.328 621.377 66.328C623.213 66.328 624.658 65.7749 625.714 64.6686C626.77 63.5623 627.298 61.6137 627.298 58.8229V57.1257C626.569 58.2823 625.639 59.1497 624.508 59.728C623.401 60.2812 622.207 60.5577 620.925 60.5577C619.441 60.5577 618.033 60.1555 616.701 59.3509C615.393 58.5212 614.325 57.3395 613.495 55.8057C612.69 54.2469 612.288 52.424 612.288 50.3372C612.288 48.2503 612.69 46.4275 613.495 44.8686C614.3 43.3097 615.368 42.128 616.701 41.3235C618.033 40.5189 619.441 40.1166 620.925 40.1166C622.232 40.1166 623.464 40.4309 624.621 41.0595C625.802 41.688 626.745 42.6183 627.449 43.8503C627.575 42.6686 627.65 41.5623 627.676 40.5315H630.504ZM621.302 57.5406C622.936 57.5406 624.344 56.9623 625.526 55.8057C626.708 54.6492 627.298 52.8263 627.298 50.3372C627.298 47.8732 626.708 46.0629 625.526 44.9063C624.344 43.7497 622.936 43.1715 621.302 43.1715C619.592 43.1715 618.222 43.8 617.191 45.0572C616.16 46.3143 615.645 48.0743 615.645 50.3372C615.645 52.6252 616.16 54.3977 617.191 55.6549C618.222 56.912 619.592 57.5406 621.302 57.5406ZM639.76 60.5577C639.182 60.5577 638.679 60.344 638.252 59.9166C637.849 59.464 637.648 58.9486 637.648 58.3703C637.648 57.7669 637.849 57.2515 638.252 56.824C638.679 56.3966 639.182 56.1829 639.76 56.1829C640.364 56.1829 640.866 56.3966 641.269 56.824C641.696 57.2515 641.91 57.7669 641.91 58.3703C641.91 58.9737 641.696 59.4892 641.269 59.9166C640.866 60.344 640.364 60.5577 639.76 60.5577ZM652.281 60.5577C651.703 60.5577 651.2 60.344 650.773 59.9166C650.37 59.464 650.169 58.9486 650.169 58.3703C650.169 57.7669 650.37 57.2515 650.773 56.824C651.2 56.3966 651.703 56.1829 652.281 56.1829C652.885 56.1829 653.388 56.3966 653.79 56.824C654.217 57.2515 654.431 57.7669 654.431 58.3703C654.431 58.9737 654.217 59.4892 653.79 59.9166C653.388 60.344 652.885 60.5577 652.281 60.5577ZM664.84 60.5577C664.262 60.5577 663.759 60.344 663.332 59.9166C662.929 59.464 662.728 58.9486 662.728 58.3703C662.728 57.7669 662.929 57.2515 663.332 56.824C663.759 56.3966 664.262 56.1829 664.84 56.1829C665.444 56.1829 665.946 56.3966 666.349 56.824C666.776 57.2515 666.99 57.7669 666.99 58.3703C666.99 58.9737 666.776 59.4892 666.349 59.9166C665.946 60.344 665.444 60.5577 664.84 60.5577ZM677.474 60.5577C676.896 60.5577 676.393 60.344 675.966 59.9166C675.564 59.464 675.362 58.9486 675.362 58.3703C675.362 57.7669 675.564 57.2515 675.966 56.824C676.393 56.3966 676.896 56.1829 677.474 56.1829C678.078 56.1829 678.581 56.3966 678.983 56.824C679.41 57.2515 679.624 57.7669 679.624 58.3703C679.624 58.9737 679.41 59.4892 678.983 59.9166C678.581 60.344 678.078 60.5577 677.474 60.5577ZM689.996 60.5577C689.417 60.5577 688.914 60.344 688.487 59.9166C688.085 59.464 687.884 58.9486 687.884 58.3703C687.884 57.7669 688.085 57.2515 688.487 56.824C688.914 56.3966 689.417 56.1829 689.996 56.1829C690.599 56.1829 691.102 56.3966 691.504 56.824C691.932 57.2515 692.145 57.7669 692.145 58.3703C692.145 58.9737 691.932 59.4892 691.504 59.9166C691.102 60.344 690.599 60.5577 689.996 60.5577ZM702.554 60.5577C701.976 60.5577 701.473 60.344 701.046 59.9166C700.644 59.464 700.442 58.9486 700.442 58.3703C700.442 57.7669 700.644 57.2515 701.046 56.824C701.473 56.3966 701.976 56.1829 702.554 56.1829C703.158 56.1829 703.661 56.3966 704.063 56.824C704.49 57.2515 704.704 57.7669 704.704 58.3703C704.704 58.9737 704.49 59.4892 704.063 59.9166C703.661 60.344 703.158 60.5577 702.554 60.5577Z" fill="#1F1F1F"/>
</g>
<path d="M822.143 31.4286C822.143 14.0711 836.214 0 853.571 0H891.286C908.643 0 922.714 14.071 922.714 31.4286V62.8571C922.714 80.2146 908.643 94.2857 891.286 94.2857H853.571C836.214 94.2857 822.143 80.2147 822.143 62.8571V31.4286Z" fill="#F2F2F2"/>
<g opacity="0.76">
<g clip-path="url(#clip0_7_44)">
<path d="M877.929 50.2857H876.687L876.247 49.8614C877.787 48.07 878.714 45.7443 878.714 43.2143C878.714 37.5729 874.141 33 868.5 33C862.859 33 858.286 37.5729 858.286 43.2143C858.286 48.8557 862.859 53.4286 868.5 53.4286C871.03 53.4286 873.356 52.5014 875.147 50.9614L875.571 51.4014V52.6429L883.429 60.4843L885.77 58.1429L877.929 50.2857V50.2857ZM868.5 50.2857C864.587 50.2857 861.429 47.1271 861.429 43.2143C861.429 39.3014 864.587 36.1429 868.5 36.1429C872.413 36.1429 875.571 39.3014 875.571 43.2143C875.571 47.1271 872.413 50.2857 868.5 50.2857Z" fill="black"/>
</g>
</g>
<defs>
<clipPath id="clip0_7_44">
<rect width="37.7143" height="37.7143" fill="white" transform="translate(853.571 28.2857)"/>
</clipPath>
</defs>
</svg>
