<svg width="14" height="14" viewBox="0 0 14 14" fill="none" xmlns="http://www.w3.org/2000/svg">
<path d="M4.54921 5.38056L4.28916 5.41848L0.738117 5.93619L0.737752 5.93624C0.511597 5.96904 0.419587 6.24961 0.584584 6.41026L0.584726 6.4104L3.15382 8.91387L3.34219 9.09743L3.29765 9.35664L2.69007 12.8928C2.69006 12.8928 2.69004 12.8929 2.69003 12.893C2.65137 13.12 2.89117 13.2916 3.09081 13.1858L3.09237 13.1849L6.26911 11.5152L6.50175 11.3929L6.73438 11.5152L9.91112 13.1849L9.9112 13.185C10.1144 13.2918 10.3518 13.1169 10.3134 12.8928C10.3134 12.8928 10.3134 12.8928 10.3134 12.8928L9.70584 9.35664L9.66131 9.09743L9.84967 8.91387L12.4188 6.4104L12.4189 6.41026C12.5839 6.24961 12.4919 5.96904 12.2657 5.93624L12.2654 5.93619L8.71434 5.41848L8.45429 5.38056L8.33804 5.14487L6.75135 1.92774C6.75129 1.92763 6.75124 1.92752 6.75118 1.92741C6.64782 1.71955 6.35345 1.72293 6.2526 1.92682L4.54921 5.38056ZM4.54921 5.38056L4.66545 5.14487L6.25251 1.92701L4.54921 5.38056Z" stroke="#1F2937"/>
</svg>
