<?xml version="1.0" encoding="UTF-8" standalone="no"?>
<!DOCTYPE svg PUBLIC "-//W3C//DTD SVG 1.1//EN" "http://www.w3.org/Graphics/SVG/1.1/DTD/svg11.dtd">
<svg width="100%" height="100%" viewBox="0 0 18 24" version="1.1" xmlns="http://www.w3.org/2000/svg" xmlns:xlink="http://www.w3.org/1999/xlink" xml:space="preserve" xmlns:serif="http://www.serif.com/" style="fill-rule:evenodd;clip-rule:evenodd;stroke-linejoin:round;stroke-miterlimit:2;">
    <g>
        <rect x="0" y="0" width="17.334" height="23.486" style="fill-opacity:0;"/>
        <path d="M3.066,22.041L14.268,22.041C15.29,22.041 16.056,21.787 16.567,21.279C17.078,20.772 17.334,20.016 17.334,19.014L17.334,9.268C17.334,8.265 17.078,7.51 16.567,7.002C16.056,6.494 15.29,6.24 14.268,6.24L11.543,6.24L11.543,7.813L14.238,7.813C14.72,7.813 15.094,7.943 15.361,8.203C15.628,8.464 15.762,8.848 15.762,9.355L15.762,18.926C15.762,19.434 15.628,19.818 15.361,20.078C15.094,20.339 14.72,20.469 14.238,20.469L3.086,20.469C2.598,20.469 2.223,20.339 1.963,20.078C1.702,19.818 1.572,19.434 1.572,18.926L1.572,9.355C1.572,8.848 1.702,8.464 1.963,8.203C2.223,7.943 2.598,7.813 3.086,7.813L5.791,7.813L5.791,6.24L3.066,6.24C2.044,6.24 1.278,6.493 0.767,6.997C0.256,7.502 0,8.258 0,9.268L0,19.014C0,20.023 0.256,20.78 0.767,21.284C1.278,21.789 2.044,22.041 3.066,22.041ZM8.662,14.395C8.877,14.395 9.061,14.32 9.214,14.17C9.367,14.02 9.443,13.841 9.443,13.633L9.443,3.604L9.385,2.139L10.039,2.832L11.523,4.414C11.66,4.57 11.836,4.648 12.051,4.648C12.253,4.648 12.422,4.583 12.559,4.453C12.695,4.323 12.764,4.157 12.764,3.955C12.764,3.773 12.686,3.604 12.529,3.447L9.229,0.264C9.131,0.166 9.038,0.098 8.95,0.059C8.862,0.02 8.766,0 8.662,0C8.564,0 8.472,0.02 8.384,0.059C8.296,0.098 8.2,0.166 8.096,0.264L4.795,3.447C4.645,3.604 4.57,3.773 4.57,3.955C4.57,4.157 4.635,4.323 4.766,4.453C4.896,4.583 5.065,4.648 5.273,4.648C5.495,4.648 5.674,4.57 5.811,4.414L7.285,2.832L7.949,2.139L7.891,3.604L7.891,13.633C7.891,13.841 7.967,14.02 8.12,14.17C8.273,14.32 8.454,14.395 8.662,14.395Z" style="fill-opacity:0.85;fill-rule:nonzero;"/>
    </g>
</svg>
